<?xml version="1.0" encoding="iso-8859-1"?>
<!-- Uploaded to: SVG Repo, www.svgrepo.com, Generator: SVG Repo Mixer Tools -->
<svg height="800px" width="800px" version="1.1" id="Capa_1" xmlns="http://www.w3.org/2000/svg" xmlns:xlink="http://www.w3.org/1999/xlink" 
	 viewBox="0 0 310.048 310.048" xml:space="preserve">
<g>
	<g>
		<path style="fill:#010002;" d="M145.987,0.06c-0.288,0.016-0.566,0.087-0.843,0.152c-0.375,0.087-0.74,0.19-1.088,0.354
			c-0.261,0.12-0.5,0.277-0.74,0.435c-0.179,0.12-0.386,0.185-0.549,0.326l-95.94,83.103c-0.114,0.098-0.158,0.245-0.261,0.348
			c-0.305,0.31-0.549,0.658-0.767,1.023c-0.152,0.261-0.315,0.517-0.43,0.794c-0.163,0.419-0.228,0.859-0.283,1.311
			c-0.027,0.218-0.136,0.413-0.136,0.636v152.169c0,38.231,31.106,69.337,69.337,69.337h81.472
			c38.231,0,69.337-31.106,69.337-69.337V69.337C265.097,31.106,237.238,0,202.999,0h-56.67C146.21,0,146.107,0.054,145.987,0.06z
			 M136.007,21.577l-21.163,73.27C101.659,78.97,85.102,76.103,71.744,77.24L136.007,21.577z M254.214,69.337v171.374
			c0,32.237-26.227,58.459-58.459,58.459h-81.472c-32.232,0-58.459-26.222-58.459-58.459V92.018
			c9.35-3.911,38.781-13.01,56.305,18.079c0.974,1.719,2.79,2.768,4.737,2.768c0.212,0,0.424-0.011,0.631-0.038
			c2.176-0.256,3.987-1.789,4.596-3.894l28.327-98.055h52.574C231.234,10.878,254.214,37.1,254.214,69.337z"/>
		<path style="fill:#010002;" d="M120.26,143.336c0,19.689,16.018,35.707,35.707,35.707s35.707-16.018,35.707-35.707
			s-16.018-35.707-35.707-35.707S120.26,123.641,120.26,143.336z M155.968,118.506c13.69,0,24.829,11.139,24.829,24.824
			c0,13.696-11.139,24.829-24.829,24.829s-24.829-11.139-24.829-24.829C131.139,129.646,142.278,118.506,155.968,118.506z"/>
		<path style="fill:#010002;" d="M155.952,186.185c-10.041,0-19.619,1.746-26.967,4.917l-25.536,11.02
			c-1.991,0.859-3.285,2.823-3.285,4.993v25.841c0,17.247,15.17,31.275,33.815,31.275h43.98c18.645,0,33.815-13.886,33.815-30.948
			v-25.509c0-2.132-1.246-4.063-3.176-4.944l-24.829-11.351C176.305,188.061,166.427,186.185,155.952,186.185z M200.895,233.281
			c0,11.068-10.291,20.07-22.937,20.07h-43.98c-12.646,0-22.937-9.154-22.937-20.396v-22.268l22.251-9.605
			c6.021-2.6,14.065-4.025,22.659-4.025c8.822,0,17.307,1.566,23.296,4.302l21.647,9.899V233.281z"/>
	</g>
</g>
</svg>